ISO-10303-21;
HEADER;
/* Generated by software containing ST-Developer
 * from STEP Tools, Inc. (www.steptools.com) 
 */

FILE_DESCRIPTION(
/* description */ ('STEP AP242'),
/* implementation_level */ '2;1');

FILE_NAME(
/* name */ 'tungsten_holder.step',
/* time_stamp */ '2026-10-09T10:49:35-05:00',
/* author */ (''),
/* organization */ (''),
/* preprocessor_version */ 'ST-DEVELOPER v20.2',
/* originating_system */ 'Autodesk Translation Framework v15.15.0.0',
/* authorisation */ '');

FILE_SCHEMA (('AUTOMOTIVE_DESIGN { 1 0 10303 214 3 1 1 }'));
ENDSEC;

DATA;
#10=MECHANICAL_DESIGN_GEOMETRIC_PRESENTATION_REPRESENTATION('',(#13),#723);
#11=SHAPE_REPRESENTATION_RELATIONSHIP('SRR','None',#730,#12);
#12=ADVANCED_BREP_SHAPE_REPRESENTATION('',(#14),#722);
#13=STYLED_ITEM('',(#740),#14);
#14=MANIFOLD_SOLID_BREP('Body1',#447);
#15=CYLINDRICAL_SURFACE('',#469,2.125);
#16=CYLINDRICAL_SURFACE('',#472,2.125);
#17=CYLINDRICAL_SURFACE('',#487,0.45);
#18=FACE_BOUND('',#57,.T.);
#19=FACE_BOUND('',#58,.T.);
#20=FACE_BOUND('',#64,.T.);
#21=FACE_BOUND('',#65,.T.);
#22=FACE_BOUND('',#69,.T.);
#23=FACE_BOUND('',#71,.T.);
#24=FACE_BOUND('',#77,.T.);
#25=CIRCLE('',#466,0.45);
#26=CIRCLE('',#467,2.125);
#27=CIRCLE('',#470,2.125);
#28=CIRCLE('',#473,2.125);
#29=CIRCLE('',#474,2.125);
#30=CIRCLE('',#476,0.45);
#31=FACE_OUTER_BOUND('',#52,.T.);
#32=FACE_OUTER_BOUND('',#53,.T.);
#33=FACE_OUTER_BOUND('',#54,.T.);
#34=FACE_OUTER_BOUND('',#55,.T.);
#35=FACE_OUTER_BOUND('',#56,.T.);
#36=FACE_OUTER_BOUND('',#59,.T.);
#37=FACE_OUTER_BOUND('',#60,.T.);
#38=FACE_OUTER_BOUND('',#61,.T.);
#39=FACE_OUTER_BOUND('',#62,.T.);
#40=FACE_OUTER_BOUND('',#63,.T.);
#41=FACE_OUTER_BOUND('',#66,.T.);
#42=FACE_OUTER_BOUND('',#67,.T.);
#43=FACE_OUTER_BOUND('',#68,.T.);
#44=FACE_OUTER_BOUND('',#70,.T.);
#45=FACE_OUTER_BOUND('',#72,.T.);
#46=FACE_OUTER_BOUND('',#73,.T.);
#47=FACE_OUTER_BOUND('',#74,.T.);
#48=FACE_OUTER_BOUND('',#75,.T.);
#49=FACE_OUTER_BOUND('',#76,.T.);
#50=FACE_OUTER_BOUND('',#78,.T.);
#51=FACE_OUTER_BOUND('',#79,.T.);
#52=EDGE_LOOP('',(#288,#289,#290,#291,#292,#293,#294,#295));
#53=EDGE_LOOP('',(#296,#297,#298,#299));
#54=EDGE_LOOP('',(#300,#301,#302,#303));
#55=EDGE_LOOP('',(#304,#305,#306,#307));
#56=EDGE_LOOP('',(#308,#309,#310,#311,#312,#313,#314,#315));
#57=EDGE_LOOP('',(#316));
#58=EDGE_LOOP('',(#317));
#59=EDGE_LOOP('',(#318,#319,#320,#321,#322,#323,#324,#325));
#60=EDGE_LOOP('',(#326,#327,#328,#329));
#61=EDGE_LOOP('',(#330,#331,#332,#333));
#62=EDGE_LOOP('',(#334,#335,#336,#337));
#63=EDGE_LOOP('',(#338,#339,#340,#341,#342,#343,#344,#345));
#64=EDGE_LOOP('',(#346));
#65=EDGE_LOOP('',(#347));
#66=EDGE_LOOP('',(#348,#349,#350,#351));
#67=EDGE_LOOP('',(#352,#353,#354,#355));
#68=EDGE_LOOP('',(#356,#357,#358,#359,#360,#361,#362,#363,#364));
#69=EDGE_LOOP('',(#365));
#70=EDGE_LOOP('',(#366,#367,#368,#369,#370,#371,#372,#373,#374));
#71=EDGE_LOOP('',(#375));
#72=EDGE_LOOP('',(#376,#377,#378,#379));
#73=EDGE_LOOP('',(#380,#381,#382,#383));
#74=EDGE_LOOP('',(#384,#385,#386,#387));
#75=EDGE_LOOP('',(#388,#389,#390,#391));
#76=EDGE_LOOP('',(#392,#393,#394,#395));
#77=EDGE_LOOP('',(#396,#397,#398,#399));
#78=EDGE_LOOP('',(#400,#401,#402,#403));
#79=EDGE_LOOP('',(#404,#405,#406,#407));
#80=LINE('',#602,#134);
#81=LINE('',#604,#135);
#82=LINE('',#606,#136);
#83=LINE('',#608,#137);
#84=LINE('',#610,#138);
#85=LINE('',#612,#139);
#86=LINE('',#614,#140);
#87=LINE('',#615,#141);
#88=LINE('',#618,#142);
#89=LINE('',#620,#143);
#90=LINE('',#621,#144);
#91=LINE('',#625,#145);
#92=LINE('',#627,#146);
#93=LINE('',#629,#147);
#94=LINE('',#630,#148);
#95=LINE('',#632,#149);
#96=LINE('',#633,#150);
#97=LINE('',#636,#151);
#98=LINE('',#638,#152);
#99=LINE('',#640,#153);
#100=LINE('',#641,#154);
#101=LINE('',#648,#155);
#102=LINE('',#650,#156);
#103=LINE('',#651,#157);
#104=LINE('',#653,#158);
#105=LINE('',#654,#159);
#106=LINE('',#657,#160);
#107=LINE('',#661,#161);
#108=LINE('',#662,#162);
#109=LINE('',#667,#163);
#110=LINE('',#671,#164);
#111=LINE('',#672,#165);
#112=LINE('',#678,#166);
#113=LINE('',#680,#167);
#114=LINE('',#682,#168);
#115=LINE('',#683,#169);
#116=LINE('',#686,#170);
#117=LINE('',#688,#171);
#118=LINE('',#689,#172);
#119=LINE('',#692,#173);
#120=LINE('',#693,#174);
#121=LINE('',#695,#175);
#122=LINE('',#697,#176);
#123=LINE('',#698,#177);
#124=LINE('',#701,#178);
#125=LINE('',#702,#179);
#126=LINE('',#704,#180);
#127=LINE('',#706,#181);
#128=LINE('',#707,#182);
#129=LINE('',#709,#183);
#130=LINE('',#712,#184);
#131=LINE('',#714,#185);
#132=LINE('',#716,#186);
#133=LINE('',#719,#187);
#134=VECTOR('',#492,10.);
#135=VECTOR('',#493,1000.);
#136=VECTOR('',#494,1000.);
#137=VECTOR('',#495,1000.);
#138=VECTOR('',#496,1000.);
#139=VECTOR('',#497,1000.);
#140=VECTOR('',#498,1000.);
#141=VECTOR('',#499,1000.);
#142=VECTOR('',#502,1000.);
#143=VECTOR('',#503,1000.);
#144=VECTOR('',#504,1000.);
#145=VECTOR('',#507,10.);
#146=VECTOR('',#508,10.);
#147=VECTOR('',#509,10.);
#148=VECTOR('',#510,10.);
#149=VECTOR('',#513,1000.);
#150=VECTOR('',#514,1000.);
#151=VECTOR('',#517,1000.);
#152=VECTOR('',#518,1000.);
#153=VECTOR('',#519,1000.);
#154=VECTOR('',#520,1000.);
#155=VECTOR('',#527,1000.);
#156=VECTOR('',#528,1000.);
#157=VECTOR('',#529,1000.);
#158=VECTOR('',#530,1000.);
#159=VECTOR('',#531,1000.);
#160=VECTOR('',#534,2.125);
#161=VECTOR('',#539,1000.);
#162=VECTOR('',#540,1000.);
#163=VECTOR('',#545,2.125);
#164=VECTOR('',#550,1000.);
#165=VECTOR('',#551,1000.);
#166=VECTOR('',#556,1000.);
#167=VECTOR('',#557,1000.);
#168=VECTOR('',#558,1000.);
#169=VECTOR('',#559,1000.);
#170=VECTOR('',#562,1000.);
#171=VECTOR('',#563,1000.);
#172=VECTOR('',#564,1000.);
#173=VECTOR('',#567,1000.);
#174=VECTOR('',#568,1000.);
#175=VECTOR('',#569,1000.);
#176=VECTOR('',#570,1000.);
#177=VECTOR('',#571,1000.);
#178=VECTOR('',#574,1000.);
#179=VECTOR('',#575,1000.);
#180=VECTOR('',#576,1000.);
#181=VECTOR('',#577,1000.);
#182=VECTOR('',#578,1000.);
#183=VECTOR('',#581,1000.);
#184=VECTOR('',#586,1000.);
#185=VECTOR('',#589,1000.);
#186=VECTOR('',#592,1000.);
#187=VECTOR('',#597,0.45);
#188=VERTEX_POINT('',#600);
#189=VERTEX_POINT('',#601);
#190=VERTEX_POINT('',#603);
#191=VERTEX_POINT('',#605);
#192=VERTEX_POINT('',#607);
#193=VERTEX_POINT('',#609);
#194=VERTEX_POINT('',#611);
#195=VERTEX_POINT('',#613);
#196=VERTEX_POINT('',#617);
#197=VERTEX_POINT('',#619);
#198=VERTEX_POINT('',#623);
#199=VERTEX_POINT('',#624);
#200=VERTEX_POINT('',#626);
#201=VERTEX_POINT('',#628);
#202=VERTEX_POINT('',#635);
#203=VERTEX_POINT('',#637);
#204=VERTEX_POINT('',#639);
#205=VERTEX_POINT('',#642);
#206=VERTEX_POINT('',#644);
#207=VERTEX_POINT('',#647);
#208=VERTEX_POINT('',#649);
#209=VERTEX_POINT('',#652);
#210=VERTEX_POINT('',#656);
#211=VERTEX_POINT('',#660);
#212=VERTEX_POINT('',#664);
#213=VERTEX_POINT('',#666);
#214=VERTEX_POINT('',#670);
#215=VERTEX_POINT('',#673);
#216=VERTEX_POINT('',#676);
#217=VERTEX_POINT('',#677);
#218=VERTEX_POINT('',#679);
#219=VERTEX_POINT('',#681);
#220=VERTEX_POINT('',#685);
#221=VERTEX_POINT('',#687);
#222=VERTEX_POINT('',#691);
#223=VERTEX_POINT('',#694);
#224=VERTEX_POINT('',#696);
#225=VERTEX_POINT('',#700);
#226=VERTEX_POINT('',#703);
#227=VERTEX_POINT('',#705);
#228=EDGE_CURVE('',#188,#189,#80,.T.);
#229=EDGE_CURVE('',#188,#190,#81,.T.);
#230=EDGE_CURVE('',#190,#191,#82,.T.);
#231=EDGE_CURVE('',#191,#192,#83,.T.);
#232=EDGE_CURVE('',#192,#193,#84,.T.);
#233=EDGE_CURVE('',#193,#194,#85,.T.);
#234=EDGE_CURVE('',#194,#195,#86,.T.);
#235=EDGE_CURVE('',#195,#189,#87,.T.);
#236=EDGE_CURVE('',#196,#189,#88,.T.);
#237=EDGE_CURVE('',#197,#196,#89,.T.);
#238=EDGE_CURVE('',#197,#188,#90,.T.);
#239=EDGE_CURVE('',#198,#199,#91,.T.);
#240=EDGE_CURVE('',#200,#198,#92,.T.);
#241=EDGE_CURVE('',#201,#200,#93,.T.);
#242=EDGE_CURVE('',#199,#201,#94,.T.);
#243=EDGE_CURVE('',#197,#200,#95,.T.);
#244=EDGE_CURVE('',#196,#201,#96,.T.);
#245=EDGE_CURVE('',#202,#198,#97,.T.);
#246=EDGE_CURVE('',#203,#202,#98,.T.);
#247=EDGE_CURVE('',#203,#204,#99,.T.);
#248=EDGE_CURVE('',#190,#204,#100,.T.);
#249=EDGE_CURVE('',#205,#205,#25,.F.);
#250=EDGE_CURVE('',#206,#206,#26,.T.);
#251=EDGE_CURVE('',#207,#191,#101,.T.);
#252=EDGE_CURVE('',#204,#208,#102,.T.);
#253=EDGE_CURVE('',#195,#208,#103,.T.);
#254=EDGE_CURVE('',#209,#194,#104,.T.);
#255=EDGE_CURVE('',#207,#209,#105,.T.);
#256=EDGE_CURVE('',#206,#210,#106,.T.);
#257=EDGE_CURVE('',#210,#210,#27,.F.);
#258=EDGE_CURVE('',#211,#199,#107,.T.);
#259=EDGE_CURVE('',#202,#211,#108,.T.);
#260=EDGE_CURVE('',#212,#212,#28,.F.);
#261=EDGE_CURVE('',#212,#213,#109,.T.);
#262=EDGE_CURVE('',#213,#213,#29,.T.);
#263=EDGE_CURVE('',#214,#208,#110,.T.);
#264=EDGE_CURVE('',#214,#211,#111,.T.);
#265=EDGE_CURVE('',#215,#215,#30,.F.);
#266=EDGE_CURVE('',#216,#217,#112,.T.);
#267=EDGE_CURVE('',#218,#217,#113,.T.);
#268=EDGE_CURVE('',#219,#218,#114,.T.);
#269=EDGE_CURVE('',#216,#219,#115,.T.);
#270=EDGE_CURVE('',#207,#220,#116,.T.);
#271=EDGE_CURVE('',#209,#221,#117,.T.);
#272=EDGE_CURVE('',#220,#221,#118,.T.);
#273=EDGE_CURVE('',#218,#222,#119,.T.);
#274=EDGE_CURVE('',#192,#222,#120,.T.);
#275=EDGE_CURVE('',#223,#220,#121,.T.);
#276=EDGE_CURVE('',#223,#224,#122,.T.);
#277=EDGE_CURVE('',#224,#219,#123,.T.);
#278=EDGE_CURVE('',#193,#225,#124,.T.);
#279=EDGE_CURVE('',#217,#225,#125,.T.);
#280=EDGE_CURVE('',#226,#216,#126,.T.);
#281=EDGE_CURVE('',#227,#226,#127,.T.);
#282=EDGE_CURVE('',#227,#221,#128,.T.);
#283=EDGE_CURVE('',#225,#222,#129,.T.);
#284=EDGE_CURVE('',#223,#227,#130,.T.);
#285=EDGE_CURVE('',#226,#224,#131,.T.);
#286=EDGE_CURVE('',#203,#214,#132,.T.);
#287=EDGE_CURVE('',#215,#205,#133,.T.);
#288=ORIENTED_EDGE('',*,*,#228,.F.);
#289=ORIENTED_EDGE('',*,*,#229,.T.);
#290=ORIENTED_EDGE('',*,*,#230,.T.);
#291=ORIENTED_EDGE('',*,*,#231,.T.);
#292=ORIENTED_EDGE('',*,*,#232,.T.);
#293=ORIENTED_EDGE('',*,*,#233,.T.);
#294=ORIENTED_EDGE('',*,*,#234,.T.);
#295=ORIENTED_EDGE('',*,*,#235,.T.);
#296=ORIENTED_EDGE('',*,*,#228,.T.);
#297=ORIENTED_EDGE('',*,*,#236,.F.);
#298=ORIENTED_EDGE('',*,*,#237,.F.);
#299=ORIENTED_EDGE('',*,*,#238,.T.);
#300=ORIENTED_EDGE('',*,*,#239,.F.);
#301=ORIENTED_EDGE('',*,*,#240,.F.);
#302=ORIENTED_EDGE('',*,*,#241,.F.);
#303=ORIENTED_EDGE('',*,*,#242,.F.);
#304=ORIENTED_EDGE('',*,*,#241,.T.);
#305=ORIENTED_EDGE('',*,*,#243,.F.);
#306=ORIENTED_EDGE('',*,*,#237,.T.);
#307=ORIENTED_EDGE('',*,*,#244,.T.);
#308=ORIENTED_EDGE('',*,*,#240,.T.);
#309=ORIENTED_EDGE('',*,*,#245,.F.);
#310=ORIENTED_EDGE('',*,*,#246,.F.);
#311=ORIENTED_EDGE('',*,*,#247,.T.);
#312=ORIENTED_EDGE('',*,*,#248,.F.);
#313=ORIENTED_EDGE('',*,*,#229,.F.);
#314=ORIENTED_EDGE('',*,*,#238,.F.);
#315=ORIENTED_EDGE('',*,*,#243,.T.);
#316=ORIENTED_EDGE('',*,*,#249,.T.);
#317=ORIENTED_EDGE('',*,*,#250,.T.);
#318=ORIENTED_EDGE('',*,*,#251,.T.);
#319=ORIENTED_EDGE('',*,*,#230,.F.);
#320=ORIENTED_EDGE('',*,*,#248,.T.);
#321=ORIENTED_EDGE('',*,*,#252,.T.);
#322=ORIENTED_EDGE('',*,*,#253,.F.);
#323=ORIENTED_EDGE('',*,*,#234,.F.);
#324=ORIENTED_EDGE('',*,*,#254,.F.);
#325=ORIENTED_EDGE('',*,*,#255,.F.);
#326=ORIENTED_EDGE('',*,*,#250,.F.);
#327=ORIENTED_EDGE('',*,*,#256,.T.);
#328=ORIENTED_EDGE('',*,*,#257,.F.);
#329=ORIENTED_EDGE('',*,*,#256,.F.);
#330=ORIENTED_EDGE('',*,*,#239,.T.);
#331=ORIENTED_EDGE('',*,*,#258,.F.);
#332=ORIENTED_EDGE('',*,*,#259,.F.);
#333=ORIENTED_EDGE('',*,*,#245,.T.);
#334=ORIENTED_EDGE('',*,*,#260,.T.);
#335=ORIENTED_EDGE('',*,*,#261,.T.);
#336=ORIENTED_EDGE('',*,*,#262,.T.);
#337=ORIENTED_EDGE('',*,*,#261,.F.);
#338=ORIENTED_EDGE('',*,*,#242,.T.);
#339=ORIENTED_EDGE('',*,*,#244,.F.);
#340=ORIENTED_EDGE('',*,*,#236,.T.);
#341=ORIENTED_EDGE('',*,*,#235,.F.);
#342=ORIENTED_EDGE('',*,*,#253,.T.);
#343=ORIENTED_EDGE('',*,*,#263,.F.);
#344=ORIENTED_EDGE('',*,*,#264,.T.);
#345=ORIENTED_EDGE('',*,*,#258,.T.);
#346=ORIENTED_EDGE('',*,*,#262,.F.);
#347=ORIENTED_EDGE('',*,*,#265,.F.);
#348=ORIENTED_EDGE('',*,*,#266,.T.);
#349=ORIENTED_EDGE('',*,*,#267,.F.);
#350=ORIENTED_EDGE('',*,*,#268,.F.);
#351=ORIENTED_EDGE('',*,*,#269,.F.);
#352=ORIENTED_EDGE('',*,*,#270,.F.);
#353=ORIENTED_EDGE('',*,*,#255,.T.);
#354=ORIENTED_EDGE('',*,*,#271,.T.);
#355=ORIENTED_EDGE('',*,*,#272,.F.);
#356=ORIENTED_EDGE('',*,*,#273,.T.);
#357=ORIENTED_EDGE('',*,*,#274,.F.);
#358=ORIENTED_EDGE('',*,*,#231,.F.);
#359=ORIENTED_EDGE('',*,*,#251,.F.);
#360=ORIENTED_EDGE('',*,*,#270,.T.);
#361=ORIENTED_EDGE('',*,*,#275,.F.);
#362=ORIENTED_EDGE('',*,*,#276,.T.);
#363=ORIENTED_EDGE('',*,*,#277,.T.);
#364=ORIENTED_EDGE('',*,*,#268,.T.);
#365=ORIENTED_EDGE('',*,*,#257,.T.);
#366=ORIENTED_EDGE('',*,*,#254,.T.);
#367=ORIENTED_EDGE('',*,*,#233,.F.);
#368=ORIENTED_EDGE('',*,*,#278,.T.);
#369=ORIENTED_EDGE('',*,*,#279,.F.);
#370=ORIENTED_EDGE('',*,*,#266,.F.);
#371=ORIENTED_EDGE('',*,*,#280,.F.);
#372=ORIENTED_EDGE('',*,*,#281,.F.);
#373=ORIENTED_EDGE('',*,*,#282,.T.);
#374=ORIENTED_EDGE('',*,*,#271,.F.);
#375=ORIENTED_EDGE('',*,*,#260,.F.);
#376=ORIENTED_EDGE('',*,*,#283,.T.);
#377=ORIENTED_EDGE('',*,*,#273,.F.);
#378=ORIENTED_EDGE('',*,*,#267,.T.);
#379=ORIENTED_EDGE('',*,*,#279,.T.);
#380=ORIENTED_EDGE('',*,*,#283,.F.);
#381=ORIENTED_EDGE('',*,*,#278,.F.);
#382=ORIENTED_EDGE('',*,*,#232,.F.);
#383=ORIENTED_EDGE('',*,*,#274,.T.);
#384=ORIENTED_EDGE('',*,*,#272,.T.);
#385=ORIENTED_EDGE('',*,*,#282,.F.);
#386=ORIENTED_EDGE('',*,*,#284,.F.);
#387=ORIENTED_EDGE('',*,*,#275,.T.);
#388=ORIENTED_EDGE('',*,*,#269,.T.);
#389=ORIENTED_EDGE('',*,*,#277,.F.);
#390=ORIENTED_EDGE('',*,*,#285,.F.);
#391=ORIENTED_EDGE('',*,*,#280,.T.);
#392=ORIENTED_EDGE('',*,*,#247,.F.);
#393=ORIENTED_EDGE('',*,*,#286,.T.);
#394=ORIENTED_EDGE('',*,*,#263,.T.);
#395=ORIENTED_EDGE('',*,*,#252,.F.);
#396=ORIENTED_EDGE('',*,*,#276,.F.);
#397=ORIENTED_EDGE('',*,*,#284,.T.);
#398=ORIENTED_EDGE('',*,*,#281,.T.);
#399=ORIENTED_EDGE('',*,*,#285,.T.);
#400=ORIENTED_EDGE('',*,*,#286,.F.);
#401=ORIENTED_EDGE('',*,*,#246,.T.);
#402=ORIENTED_EDGE('',*,*,#259,.T.);
#403=ORIENTED_EDGE('',*,*,#264,.F.);
#404=ORIENTED_EDGE('',*,*,#265,.T.);
#405=ORIENTED_EDGE('',*,*,#287,.T.);
#406=ORIENTED_EDGE('',*,*,#249,.F.);
#407=ORIENTED_EDGE('',*,*,#287,.F.);
#408=PLANE('',#461);
#409=PLANE('',#462);
#410=PLANE('',#463);
#411=PLANE('',#464);
#412=PLANE('',#465);
#413=PLANE('',#468);
#414=PLANE('',#471);
#415=PLANE('',#475);
#416=PLANE('',#477);
#417=PLANE('',#478);
#418=PLANE('',#479);
#419=PLANE('',#480);
#420=PLANE('',#481);
#421=PLANE('',#482);
#422=PLANE('',#483);
#423=PLANE('',#484);
#424=PLANE('',#485);
#425=PLANE('',#486);
#426=ADVANCED_FACE('',(#31),#408,.T.);
#427=ADVANCED_FACE('',(#32),#409,.T.);
#428=ADVANCED_FACE('',(#33),#410,.F.);
#429=ADVANCED_FACE('',(#34),#411,.F.);
#430=ADVANCED_FACE('',(#35,#18,#19),#412,.T.);
#431=ADVANCED_FACE('',(#36),#413,.T.);
#432=ADVANCED_FACE('',(#37),#15,.F.);
#433=ADVANCED_FACE('',(#38),#414,.T.);
#434=ADVANCED_FACE('',(#39),#16,.F.);
#435=ADVANCED_FACE('',(#40,#20,#21),#415,.F.);
#436=ADVANCED_FACE('',(#41),#416,.F.);
#437=ADVANCED_FACE('',(#42),#417,.F.);
#438=ADVANCED_FACE('',(#43,#22),#418,.T.);
#439=ADVANCED_FACE('',(#44,#23),#419,.F.);
#440=ADVANCED_FACE('',(#45),#420,.F.);
#441=ADVANCED_FACE('',(#46),#421,.T.);
#442=ADVANCED_FACE('',(#47),#422,.F.);
#443=ADVANCED_FACE('',(#48),#423,.F.);
#444=ADVANCED_FACE('',(#49,#24),#424,.F.);
#445=ADVANCED_FACE('',(#50),#425,.T.);
#446=ADVANCED_FACE('',(#51),#17,.F.);
#447=CLOSED_SHELL('',(#426,#427,#428,#429,#430,#431,#432,#433,#434,#435,
#436,#437,#438,#439,#440,#441,#442,#443,#444,#445,#446));
#448=DERIVED_UNIT_ELEMENT(#450,1.);
#449=DERIVED_UNIT_ELEMENT(#725,-3.);
#450=(
MASS_UNIT()
NAMED_UNIT(*)
SI_UNIT(.KILO.,.GRAM.)
);
#451=DERIVED_UNIT((#448,#449));
#452=MEASURE_REPRESENTATION_ITEM('density measure',
POSITIVE_RATIO_MEASURE(1250.),#451);
#453=PROPERTY_DEFINITION_REPRESENTATION(#458,#455);
#454=PROPERTY_DEFINITION_REPRESENTATION(#459,#456);
#455=REPRESENTATION('material name',(#457),#722);
#456=REPRESENTATION('density',(#452),#722);
#457=DESCRIPTIVE_REPRESENTATION_ITEM('Rubber, Silicone',
'Rubber, Silicone');
#458=PROPERTY_DEFINITION('material property','material name',#732);
#459=PROPERTY_DEFINITION('material property','density of part',#732);
#460=AXIS2_PLACEMENT_3D('',#598,#488,#489);
#461=AXIS2_PLACEMENT_3D('',#599,#490,#491);
#462=AXIS2_PLACEMENT_3D('',#616,#500,#501);
#463=AXIS2_PLACEMENT_3D('',#622,#505,#506);
#464=AXIS2_PLACEMENT_3D('',#631,#511,#512);
#465=AXIS2_PLACEMENT_3D('',#634,#515,#516);
#466=AXIS2_PLACEMENT_3D('',#643,#521,#522);
#467=AXIS2_PLACEMENT_3D('',#645,#523,#524);
#468=AXIS2_PLACEMENT_3D('',#646,#525,#526);
#469=AXIS2_PLACEMENT_3D('',#655,#532,#533);
#470=AXIS2_PLACEMENT_3D('',#658,#535,#536);
#471=AXIS2_PLACEMENT_3D('',#659,#537,#538);
#472=AXIS2_PLACEMENT_3D('',#663,#541,#542);
#473=AXIS2_PLACEMENT_3D('',#665,#543,#544);
#474=AXIS2_PLACEMENT_3D('',#668,#546,#547);
#475=AXIS2_PLACEMENT_3D('',#669,#548,#549);
#476=AXIS2_PLACEMENT_3D('',#674,#552,#553);
#477=AXIS2_PLACEMENT_3D('',#675,#554,#555);
#478=AXIS2_PLACEMENT_3D('',#684,#560,#561);
#479=AXIS2_PLACEMENT_3D('',#690,#565,#566);
#480=AXIS2_PLACEMENT_3D('',#699,#572,#573);
#481=AXIS2_PLACEMENT_3D('',#708,#579,#580);
#482=AXIS2_PLACEMENT_3D('',#710,#582,#583);
#483=AXIS2_PLACEMENT_3D('',#711,#584,#585);
#484=AXIS2_PLACEMENT_3D('',#713,#587,#588);
#485=AXIS2_PLACEMENT_3D('',#715,#590,#591);
#486=AXIS2_PLACEMENT_3D('',#717,#593,#594);
#487=AXIS2_PLACEMENT_3D('',#718,#595,#596);
#488=DIRECTION('axis',(0.,0.,1.));
#489=DIRECTION('refdir',(1.,0.,0.));
#490=DIRECTION('center_axis',(-8.552847072295E-48,-1.,-4.37905770101505E-47));
#491=DIRECTION('ref_axis',(2.80900581281531E-94,4.37905770101505E-47,-1.));
#492=DIRECTION('',(4.37905770101505E-47,-4.37905770101505E-47,1.));
#493=DIRECTION('',(1.,-3.421138828918E-47,-4.37905770101505E-47));
#494=DIRECTION('',(4.37905770101505E-47,-2.40848173555828E-46,1.));
#495=DIRECTION('',(-1.,3.421138828918E-47,4.37905770101505E-47));
#496=DIRECTION('',(4.37905770101505E-47,-2.40848173555828E-46,1.));
#497=DIRECTION('',(1.,-3.421138828918E-47,-4.37905770101505E-47));
#498=DIRECTION('',(4.37905770101505E-47,-2.40848173555828E-46,1.));
#499=DIRECTION('',(-1.,3.421138828918E-47,4.37905770101505E-47));
#500=DIRECTION('center_axis',(1.,-3.421138828918E-47,-4.37905770101505E-47));
#501=DIRECTION('ref_axis',(-4.37905770101505E-47,2.40848173555828E-46,-1.));
#502=DIRECTION('',(3.421138828918E-47,1.,2.40848173555828E-46));
#503=DIRECTION('',(4.37905770101505E-47,-2.40848173555828E-46,1.));
#504=DIRECTION('',(3.421138828918E-47,1.,2.40848173555828E-46));
#505=DIRECTION('center_axis',(1.,-2.52575738102223E-15,-4.37905770101511E-47));
#506=DIRECTION('ref_axis',(2.52575738102223E-15,1.,1.35585468084862E-31));
#507=DIRECTION('',(4.37905770101505E-47,-2.40848173555828E-46,1.));
#508=DIRECTION('',(2.52575738102223E-15,1.,2.40848173555828E-46));
#509=DIRECTION('',(-4.37905770101505E-47,2.40848173555828E-46,-1.));
#510=DIRECTION('',(-2.52575738102223E-15,-1.,-2.40848173555828E-46));
#511=DIRECTION('center_axis',(3.421138828918E-47,1.,2.40848173555828E-46));
#512=DIRECTION('ref_axis',(4.37905770101505E-47,-2.40848173555828E-46,1.));
#513=DIRECTION('',(-1.,3.421138828918E-47,4.37905770101505E-47));
#514=DIRECTION('',(-1.,3.421138828918E-47,4.37905770101505E-47));
#515=DIRECTION('center_axis',(-4.37905770101505E-47,2.40848173555828E-46,
-1.));
#516=DIRECTION('ref_axis',(1.,-3.421138828918E-47,-4.37905770101505E-47));
#517=DIRECTION('',(-1.,3.421138828918E-47,4.37905770101505E-47));
#518=DIRECTION('',(3.421138828918E-47,1.,2.40848173555828E-46));
#519=DIRECTION('',(1.,-3.421138828918E-47,-4.37905770101505E-47));
#520=DIRECTION('',(3.421138828918E-47,1.,2.40848173555828E-46));
#521=DIRECTION('center_axis',(-4.37905770101505E-47,2.40848173555828E-46,
-1.));
#522=DIRECTION('ref_axis',(-1.,3.421138828918E-47,4.37905770101505E-47));
#523=DIRECTION('center_axis',(4.37905770101505E-47,-2.40848173555828E-46,
1.));
#524=DIRECTION('ref_axis',(1.,-3.421138828918E-47,-4.37905770101505E-47));
#525=DIRECTION('center_axis',(1.,-3.421138828918E-47,-4.37905770101505E-47));
#526=DIRECTION('ref_axis',(-4.37905770101505E-47,2.40848173555828E-46,-1.));
#527=DIRECTION('',(-3.421138828918E-47,-1.,-2.40848173555828E-46));
#528=DIRECTION('',(4.37905770101505E-47,-2.40848173555828E-46,1.));
#529=DIRECTION('',(3.421138828918E-47,1.,2.40848173555828E-46));
#530=DIRECTION('',(-3.421138828918E-47,-1.,-2.40848173555828E-46));
#531=DIRECTION('',(4.37905770101505E-47,-2.40848173555828E-46,1.));
#532=DIRECTION('center_axis',(4.37905770101505E-47,-2.40848173555828E-46,
1.));
#533=DIRECTION('ref_axis',(1.,-3.421138828918E-47,-4.37905770101505E-47));
#534=DIRECTION('',(4.37905770101505E-47,-2.40848173555828E-46,1.));
#535=DIRECTION('center_axis',(4.37905770101505E-47,-2.40848173555828E-46,
1.));
#536=DIRECTION('ref_axis',(1.,-3.421138828918E-47,-4.37905770101505E-47));
#537=DIRECTION('center_axis',(3.421138828918E-47,1.,2.40848173555828E-46));
#538=DIRECTION('ref_axis',(4.37905770101505E-47,-2.40848173555828E-46,1.));
#539=DIRECTION('',(-1.,3.421138828918E-47,4.37905770101505E-47));
#540=DIRECTION('',(4.37905770101505E-47,-2.40848173555828E-46,1.));
#541=DIRECTION('center_axis',(4.37905770101505E-47,-2.40848173555828E-46,
1.));
#542=DIRECTION('ref_axis',(1.,-3.421138828918E-47,-4.37905770101505E-47));
#543=DIRECTION('center_axis',(4.37905770101505E-47,-2.40848173555828E-46,
1.));
#544=DIRECTION('ref_axis',(1.,-3.421138828918E-47,-4.37905770101505E-47));
#545=DIRECTION('',(4.37905770101505E-47,-2.40848173555828E-46,1.));
#546=DIRECTION('center_axis',(4.37905770101505E-47,-2.40848173555828E-46,
1.));
#547=DIRECTION('ref_axis',(1.,-3.421138828918E-47,-4.37905770101505E-47));
#548=DIRECTION('center_axis',(-4.37905770101505E-47,2.40848173555828E-46,
-1.));
#549=DIRECTION('ref_axis',(1.,-3.421138828918E-47,-4.37905770101505E-47));
#550=DIRECTION('',(1.,-3.421138828918E-47,-4.37905770101505E-47));
#551=DIRECTION('',(3.421138828918E-47,1.,2.40848173555828E-46));
#552=DIRECTION('center_axis',(-4.37905770101505E-47,2.40848173555828E-46,
-1.));
#553=DIRECTION('ref_axis',(-1.,3.421138828918E-47,4.37905770101505E-47));
#554=DIRECTION('center_axis',(-0.866025403784439,0.5,1.58347838915083E-46));
#555=DIRECTION('ref_axis',(-0.5,-0.866025403784439,-1.86685348249355E-46));
#556=DIRECTION('',(-0.5,-0.866025403784439,-1.86685348249355E-46));
#557=DIRECTION('',(4.37905770101505E-47,-2.40848173555828E-46,1.));
#558=DIRECTION('',(-0.5,-0.866025403784439,-1.86685348249355E-46));
#559=DIRECTION('',(-4.37905770101505E-47,2.40848173555828E-46,-1.));
#560=DIRECTION('center_axis',(0.866025403784439,0.5,8.25003346407448E-47));
#561=DIRECTION('ref_axis',(-0.5,0.866025403784439,2.30475925259506E-46));
#562=DIRECTION('',(-0.5,0.866025403784439,2.30475925259506E-46));
#563=DIRECTION('',(-0.5,0.866025403784439,2.30475925259506E-46));
#564=DIRECTION('',(4.37905770101505E-47,-2.40848173555828E-46,1.));
#565=DIRECTION('center_axis',(4.37905770101505E-47,-2.40848173555828E-46,
1.));
#566=DIRECTION('ref_axis',(1.,-3.421138828918E-47,-4.37905770101505E-47));
#567=DIRECTION('',(0.5,-0.866025403784439,-2.30475925259506E-46));
#568=DIRECTION('',(3.421138828918E-47,1.,2.40848173555828E-46));
#569=DIRECTION('',(-3.421138828918E-47,-1.,-2.40848173555828E-46));
#570=DIRECTION('',(-1.,3.421138828918E-47,4.37905770101505E-47));
#571=DIRECTION('',(-3.421138828918E-47,-1.,-2.40848173555828E-46));
#572=DIRECTION('center_axis',(4.37905770101505E-47,-2.40848173555828E-46,
1.));
#573=DIRECTION('ref_axis',(1.,-3.421138828918E-47,-4.37905770101505E-47));
#574=DIRECTION('',(3.421138828918E-47,1.,2.40848173555828E-46));
#575=DIRECTION('',(0.5,-0.866025403784439,-2.30475925259506E-46));
#576=DIRECTION('',(-3.421138828918E-47,-1.,-2.40848173555828E-46));
#577=DIRECTION('',(-1.,3.421138828918E-47,4.37905770101505E-47));
#578=DIRECTION('',(-3.421138828918E-47,-1.,-2.40848173555828E-46));
#579=DIRECTION('center_axis',(-0.866025403784439,-0.5,-8.25003346407448E-47));
#580=DIRECTION('ref_axis',(0.5,-0.866025403784439,-2.30475925259506E-46));
#581=DIRECTION('',(-4.37905770101505E-47,2.40848173555828E-46,-1.));
#582=DIRECTION('center_axis',(1.,-3.421138828918E-47,-4.37905770101505E-47));
#583=DIRECTION('ref_axis',(-4.37905770101505E-47,2.40848173555828E-46,-1.));
#584=DIRECTION('center_axis',(1.,-3.421138828918E-47,-4.37905770101505E-47));
#585=DIRECTION('ref_axis',(-4.37905770101505E-47,2.40848173555828E-46,-1.));
#586=DIRECTION('',(4.37905770101505E-47,-2.40848173555828E-46,1.));
#587=DIRECTION('center_axis',(-1.,3.421138828918E-47,4.37905770101505E-47));
#588=DIRECTION('ref_axis',(4.37905770101505E-47,-2.40848173555828E-46,1.));
#589=DIRECTION('',(-4.37905770101505E-47,2.40848173555828E-46,-1.));
#590=DIRECTION('center_axis',(-3.421138828918E-47,-1.,-2.40848173555828E-46));
#591=DIRECTION('ref_axis',(-4.37905770101505E-47,2.40848173555828E-46,-1.));
#592=DIRECTION('',(4.37905770101505E-47,-2.40848173555828E-46,1.));
#593=DIRECTION('center_axis',(1.,-3.421138828918E-47,-4.37905770101505E-47));
#594=DIRECTION('ref_axis',(-4.37905770101505E-47,2.40848173555828E-46,-1.));
#595=DIRECTION('center_axis',(-4.37905770101505E-47,2.40848173555828E-46,
-1.));
#596=DIRECTION('ref_axis',(-1.,3.421138828918E-47,4.37905770101505E-47));
#597=DIRECTION('',(-4.37905770101505E-47,2.40848173555828E-46,-1.));
#598=CARTESIAN_POINT('',(0.,0.,0.));
#599=CARTESIAN_POINT('Origin',(-49.5560782268548,127.904297681301,123.760155302101));
#600=CARTESIAN_POINT('',(-55.0060782268548,127.904297681301,123.760155302101));
#601=CARTESIAN_POINT('',(-55.0060782268548,127.904297681301,129.760155302101));
#602=CARTESIAN_POINT('',(-55.0060782268548,127.904297681301,123.760155302101));
#603=CARTESIAN_POINT('',(-45.8060782268548,127.904297681301,123.760155302101));
#604=CARTESIAN_POINT('',(-49.5560782268548,127.904297681301,123.760155302101));
#605=CARTESIAN_POINT('',(-45.8060782268548,127.904297681301,125.010155302101));
#606=CARTESIAN_POINT('',(-45.8060782268548,127.904297681301,123.760155302101));
#607=CARTESIAN_POINT('',(-52.7505645997219,127.904297681301,125.010155302101));
#608=CARTESIAN_POINT('',(-49.5560782268548,127.904297681301,125.010155302101));
#609=CARTESIAN_POINT('',(-52.7505645997219,127.904297681301,128.510155302101));
#610=CARTESIAN_POINT('',(-52.7505645997219,127.904297681301,123.760155302101));
#611=CARTESIAN_POINT('',(-45.8060782268548,127.904297681301,128.510155302101));
#612=CARTESIAN_POINT('',(-49.5560782268548,127.904297681301,128.510155302101));
#613=CARTESIAN_POINT('',(-45.8060782268548,127.904297681301,129.760155302101));
#614=CARTESIAN_POINT('',(-45.8060782268548,127.904297681301,123.760155302101));
#615=CARTESIAN_POINT('',(-49.5560782268548,127.904297681301,129.760155302101));
#616=CARTESIAN_POINT('Origin',(-55.0060782268548,127.854297681301,123.760155302101));
#617=CARTESIAN_POINT('',(-55.0060782268548,126.604297681301,129.760155302101));
#618=CARTESIAN_POINT('',(-55.0060782268548,127.854297681301,129.760155302101));
#619=CARTESIAN_POINT('',(-55.0060782268548,126.604297681301,123.760155302101));
#620=CARTESIAN_POINT('',(-55.0060782268548,126.604297681301,123.760155302101));
#621=CARTESIAN_POINT('',(-55.0060782268548,127.854297681301,123.760155302101));
#622=CARTESIAN_POINT('Origin',(-60.4825678719535,116.846918281879,75.7100107719079));
#623=CARTESIAN_POINT('',(-60.4825678719535,138.604297681301,123.760155302101));
#624=CARTESIAN_POINT('',(-60.4825678719535,138.604297681301,129.760155302101));
#625=CARTESIAN_POINT('',(-60.4825678719535,138.604297681301,99.7350830370044));
#626=CARTESIAN_POINT('',(-60.4825678719535,126.604297681301,123.760155302101));
#627=CARTESIAN_POINT('',(-60.4825678719535,124.72560798159,123.760155302101));
#628=CARTESIAN_POINT('',(-60.4825678719535,126.604297681301,129.760155302101));
#629=CARTESIAN_POINT('',(-60.4825678719535,126.604297681301,99.7350830370044));
#630=CARTESIAN_POINT('',(-60.4825678719535,124.72560798159,129.760155302101));
#631=CARTESIAN_POINT('Origin',(-42.8060782268548,126.604297681301,123.760155302101));
#632=CARTESIAN_POINT('',(-42.8060782268548,126.604297681301,123.760155302101));
#633=CARTESIAN_POINT('',(-42.8060782268548,126.604297681301,129.760155302101));
#634=CARTESIAN_POINT('Origin',(-58.8060782268548,132.604297681301,123.760155302101));
#635=CARTESIAN_POINT('',(-55.0060782268548,138.604297681301,123.760155302101));
#636=CARTESIAN_POINT('',(-42.8060782268548,138.604297681301,123.760155302101));
#637=CARTESIAN_POINT('',(-55.0060782268548,136.604297681301,123.760155302101));
#638=CARTESIAN_POINT('',(-55.0060782268548,137.354297681301,123.760155302101));
#639=CARTESIAN_POINT('',(-45.8060782268548,136.604297681301,123.760155302101));
#640=CARTESIAN_POINT('',(-49.5560782268548,136.604297681301,123.760155302101));
#641=CARTESIAN_POINT('',(-45.8060782268548,132.604297681301,123.760155302101));
#642=CARTESIAN_POINT('',(-58.1060782268548,131.604297681301,123.760155302101));
#643=CARTESIAN_POINT('Origin',(-58.5560782268548,131.604297681301,123.760155302101));
#644=CARTESIAN_POINT('',(-51.9310782268548,132.604297681301,123.760155302101));
#645=CARTESIAN_POINT('Origin',(-49.8060782268548,132.604297681301,123.760155302101));
#646=CARTESIAN_POINT('Origin',(-45.8060782268548,132.604297681301,123.760155302101));
#647=CARTESIAN_POINT('',(-45.8060782268548,134.276094451026,125.010155302101));
#648=CARTESIAN_POINT('',(-45.8060782268548,132.604297681301,125.010155302101));
#649=CARTESIAN_POINT('',(-45.8060782268548,136.604297681301,129.760155302101));
#650=CARTESIAN_POINT('',(-45.8060782268548,136.604297681301,123.760155302101));
#651=CARTESIAN_POINT('',(-45.8060782268548,132.604297681301,129.760155302101));
#652=CARTESIAN_POINT('',(-45.8060782268548,134.276094451026,128.510155302101));
#653=CARTESIAN_POINT('',(-45.8060782268548,132.604297681301,128.510155302101));
#654=CARTESIAN_POINT('',(-45.8060782268548,134.276094451026,123.760155302101));
#655=CARTESIAN_POINT('Origin',(-49.8060782268548,132.604297681301,123.760155302101));
#656=CARTESIAN_POINT('',(-51.9310782268548,132.604297681301,125.010155302101));
#657=CARTESIAN_POINT('',(-51.9310782268548,132.604297681301,123.760155302101));
#658=CARTESIAN_POINT('Origin',(-49.8060782268548,132.604297681301,125.010155302101));
#659=CARTESIAN_POINT('Origin',(-42.8060782268548,138.604297681301,123.760155302101));
#660=CARTESIAN_POINT('',(-55.0060782268548,138.604297681301,129.760155302101));
#661=CARTESIAN_POINT('',(-42.8060782268548,138.604297681301,129.760155302101));
#662=CARTESIAN_POINT('',(-55.0060782268548,138.604297681301,123.760155302101));
#663=CARTESIAN_POINT('Origin',(-49.8060782268548,132.604297681301,123.760155302101));
#664=CARTESIAN_POINT('',(-51.9310782268548,132.604297681301,128.510155302101));
#665=CARTESIAN_POINT('Origin',(-49.8060782268548,132.604297681301,128.510155302101));
#666=CARTESIAN_POINT('',(-51.9310782268548,132.604297681301,129.760155302101));
#667=CARTESIAN_POINT('',(-51.9310782268548,132.604297681301,123.760155302101));
#668=CARTESIAN_POINT('Origin',(-49.8060782268548,132.604297681301,129.760155302101));
#669=CARTESIAN_POINT('Origin',(-58.8060782268548,132.604297681301,129.760155302101));
#670=CARTESIAN_POINT('',(-55.0060782268548,136.604297681301,129.760155302101));
#671=CARTESIAN_POINT('',(-49.5560782268548,136.604297681301,129.760155302101));
#672=CARTESIAN_POINT('',(-55.0060782268548,137.354297681301,129.760155302101));
#673=CARTESIAN_POINT('',(-58.1060782268548,131.604297681301,129.760155302101));
#674=CARTESIAN_POINT('Origin',(-58.5560782268548,131.604297681301,129.760155302101));
#675=CARTESIAN_POINT('Origin',(-53.5386843843702,134.73923417184,125.010155302101));
#676=CARTESIAN_POINT('',(-52.7505645997219,136.104297681301,128.510155302101));
#677=CARTESIAN_POINT('',(-54.7712905418856,132.604297681301,128.510155302101));
#678=CARTESIAN_POINT('',(-53.5386843843702,134.73923417184,128.510155302101));
#679=CARTESIAN_POINT('',(-54.7712905418856,132.604297681301,125.010155302101));
#680=CARTESIAN_POINT('',(-54.7712905418856,132.604297681301,125.010155302101));
#681=CARTESIAN_POINT('',(-52.7505645997219,136.104297681301,125.010155302101));
#682=CARTESIAN_POINT('',(-53.5386843843702,134.73923417184,125.010155302101));
#683=CARTESIAN_POINT('',(-52.7505645997219,136.104297681301,123.760155302101));
#684=CARTESIAN_POINT('Origin',(-46.0734720693394,134.73923417184,125.010155302101));
#685=CARTESIAN_POINT('',(-46.8615918539877,136.104297681301,125.010155302101));
#686=CARTESIAN_POINT('',(-46.0734720693394,134.73923417184,125.010155302101));
#687=CARTESIAN_POINT('',(-46.8615918539877,136.104297681301,128.510155302101));
#688=CARTESIAN_POINT('',(-46.0734720693394,134.73923417184,128.510155302101));
#689=CARTESIAN_POINT('',(-46.8615918539877,136.104297681301,123.760155302101));
#690=CARTESIAN_POINT('Origin',(-49.8060782268548,132.604297681301,125.010155302101));
#691=CARTESIAN_POINT('',(-52.7505645997219,129.104297681301,125.010155302101));
#692=CARTESIAN_POINT('',(-53.5386843843702,130.469361190762,125.010155302101));
#693=CARTESIAN_POINT('',(-52.7505645997219,128.604297681301,125.010155302101));
#694=CARTESIAN_POINT('',(-46.8615918539877,136.604297681301,125.010155302101));
#695=CARTESIAN_POINT('',(-46.8615918539877,136.604297681301,125.010155302101));
#696=CARTESIAN_POINT('',(-52.7505645997219,136.604297681301,125.010155302101));
#697=CARTESIAN_POINT('',(-49.5560782268548,136.604297681301,125.010155302101));
#698=CARTESIAN_POINT('',(-52.7505645997219,136.604297681301,125.010155302101));
#699=CARTESIAN_POINT('Origin',(-49.8060782268548,132.604297681301,128.510155302101));
#700=CARTESIAN_POINT('',(-52.7505645997219,129.104297681301,128.510155302101));
#701=CARTESIAN_POINT('',(-52.7505645997219,128.604297681301,128.510155302101));
#702=CARTESIAN_POINT('',(-53.5386843843702,130.469361190762,128.510155302101));
#703=CARTESIAN_POINT('',(-52.7505645997219,136.604297681301,128.510155302101));
#704=CARTESIAN_POINT('',(-52.7505645997219,136.604297681301,128.510155302101));
#705=CARTESIAN_POINT('',(-46.8615918539877,136.604297681301,128.510155302101));
#706=CARTESIAN_POINT('',(-49.5560782268548,136.604297681301,128.510155302101));
#707=CARTESIAN_POINT('',(-46.8615918539877,136.604297681301,128.510155302101));
#708=CARTESIAN_POINT('Origin',(-53.5386843843702,130.469361190762,125.010155302101));
#709=CARTESIAN_POINT('',(-52.7505645997219,129.104297681301,123.760155302101));
#710=CARTESIAN_POINT('Origin',(-52.7505645997219,128.604297681301,123.760155302101));
#711=CARTESIAN_POINT('Origin',(-46.8615918539877,136.604297681301,123.760155302101));
#712=CARTESIAN_POINT('',(-46.8615918539877,136.604297681301,123.760155302101));
#713=CARTESIAN_POINT('Origin',(-52.7505645997219,136.604297681301,123.760155302101));
#714=CARTESIAN_POINT('',(-52.7505645997219,136.604297681301,123.760155302101));
#715=CARTESIAN_POINT('Origin',(-49.5560782268548,136.604297681301,123.760155302101));
#716=CARTESIAN_POINT('',(-55.0060782268548,136.604297681301,123.760155302101));
#717=CARTESIAN_POINT('Origin',(-55.0060782268548,137.354297681301,123.760155302101));
#718=CARTESIAN_POINT('Origin',(-58.5560782268548,131.604297681301,166.760155302101));
#719=CARTESIAN_POINT('',(-58.1060782268548,131.604297681301,166.760155302101));
#720=UNCERTAINTY_MEASURE_WITH_UNIT(LENGTH_MEASURE(0.01),#724,
'DISTANCE_ACCURACY_VALUE',
'Maximum model space distance between geometric entities at asserted c
onnectivities');
#721=UNCERTAINTY_MEASURE_WITH_UNIT(LENGTH_MEASURE(0.01),#724,
'DISTANCE_ACCURACY_VALUE',
'Maximum model space distance between geometric entities at asserted c
onnectivities');
#722=(
GEOMETRIC_REPRESENTATION_CONTEXT(3)
GLOBAL_UNCERTAINTY_ASSIGNED_CONTEXT((#720))
GLOBAL_UNIT_ASSIGNED_CONTEXT((#724,#726,#727))
REPRESENTATION_CONTEXT('','3D')
);
#723=(
GEOMETRIC_REPRESENTATION_CONTEXT(3)
GLOBAL_UNCERTAINTY_ASSIGNED_CONTEXT((#721))
GLOBAL_UNIT_ASSIGNED_CONTEXT((#724,#726,#727))
REPRESENTATION_CONTEXT('','3D')
);
#724=(
LENGTH_UNIT()
NAMED_UNIT(*)
SI_UNIT(.MILLI.,.METRE.)
);
#725=(
LENGTH_UNIT()
NAMED_UNIT(*)
SI_UNIT($,.METRE.)
);
#726=(
NAMED_UNIT(*)
PLANE_ANGLE_UNIT()
SI_UNIT($,.RADIAN.)
);
#727=(
NAMED_UNIT(*)
SI_UNIT($,.STERADIAN.)
SOLID_ANGLE_UNIT()
);
#728=SHAPE_DEFINITION_REPRESENTATION(#729,#730);
#729=PRODUCT_DEFINITION_SHAPE('',$,#732);
#730=SHAPE_REPRESENTATION('',(#460),#722);
#731=PRODUCT_DEFINITION_CONTEXT('part definition',#736,'design');
#732=PRODUCT_DEFINITION('2026-10-09-10-47-53-631','(Unsaved)',#733,#731);
#733=PRODUCT_DEFINITION_FORMATION('',$,#738);
#734=PRODUCT_RELATED_PRODUCT_CATEGORY('(Unsaved)','(Unsaved)',(#738));
#735=APPLICATION_PROTOCOL_DEFINITION('international standard',
'automotive_design',2009,#736);
#736=APPLICATION_CONTEXT(
'Core Data for Automotive Mechanical Design Process');
#737=PRODUCT_CONTEXT('part definition',#736,'mechanical');
#738=PRODUCT('2026-10-09-10-47-53-631','(Unsaved)','STEP AP242',(#737));
#739=PRESENTATION_STYLE_ASSIGNMENT((#741));
#740=PRESENTATION_STYLE_ASSIGNMENT((#742));
#741=SURFACE_STYLE_USAGE(.BOTH.,#743);
#742=SURFACE_STYLE_USAGE(.BOTH.,#744);
#743=SURFACE_SIDE_STYLE('',(#745));
#744=SURFACE_SIDE_STYLE('',(#746));
#745=SURFACE_STYLE_FILL_AREA(#747);
#746=SURFACE_STYLE_FILL_AREA(#748);
#747=FILL_AREA_STYLE('Silicone (White)',(#749));
#748=FILL_AREA_STYLE('Paek (Beige)',(#750));
#749=FILL_AREA_STYLE_COLOUR('Silicone (White)',#751);
#750=FILL_AREA_STYLE_COLOUR('Paek (Beige)',#752);
#751=COLOUR_RGB('Silicone (White)',0.964705882352941,0.964705882352941,
0.952941176470588);
#752=COLOUR_RGB('Paek (Beige)',0.898039215686275,0.792156862745098,0.619607843137255);
ENDSEC;
END-ISO-10303-21;
